<?xml version="1.0" encoding="utf-8"?>
<!-- Generator: Adobe Illustrator 22.0.0, SVG Export Plug-In . SVG Version: 6.00 Build 0)  -->
<svg version="1.1" id="Layer_1" xmlns="http://www.w3.org/2000/svg" xmlns:xlink="http://www.w3.org/1999/xlink" x="0px" y="0px"
	 viewBox="0 0 444.1 85" style="enable-background:new 0 0 444.1 85;" xml:space="preserve">
<style type="text/css">
	.st0{fill:#07A7D8;stroke:#07A7D8;stroke-linecap:round;stroke-miterlimit:10;}
	.st1{fill:none;}
	.st2{enable-background:new    ;}
	.st3{fill:#37BEDD;stroke:#37BEDD;stroke-linecap:round;stroke-miterlimit:10;}
	.st4{fill:#B0E7F7;stroke:#B0E7F7;stroke-linecap:round;stroke-miterlimit:10;}
	.st5{fill:#05565E;stroke:#05565E;stroke-linecap:round;stroke-miterlimit:10;}
	.st6{fill:#0EC0DD;stroke:#0EC0DD;stroke-linecap:round;stroke-miterlimit:10;}
</style>
<path class="st0" d="M70.1,132.9"/>
<rect x="112.6" y="13.4" class="st1" width="392.6" height="93.2"/>
<g>
	<g class="st2">
		<path class="st3" d="M108.6,62.1l6.1-7.3c3.3,2.9,7.7,4.9,11.5,4.9c4.4,0,6.6-1.7,6.6-4.5c0-3-2.7-3.9-6.8-5.6L120,47
			c-4.9-2-9.5-6-9.5-12.8c0-7.8,6.9-14,16.7-14c5.4,0,11.1,2.1,15.1,6.2l-5.4,6.7c-3.1-2.4-6-3.7-9.7-3.7c-3.7,0-6,1.5-6,4.2
			c0,2.9,3.1,3.9,7.2,5.6l6,2.4c5.7,2.3,9.3,6.1,9.3,12.8c0,7.8-6.5,14.5-17.7,14.5C119.9,68.9,113.4,66.6,108.6,62.1z"/>
		<path class="st3" d="M160.8,30h-12.9v-8.9h36.4V30h-12.9v38h-10.6V30z"/>
		<path class="st3" d="M189.5,44.3c0-15.3,8.7-24.1,21.3-24.1s21.3,8.9,21.3,24.1c0,15.3-8.7,24.5-21.3,24.5S189.5,59.7,189.5,44.3z
			 M221.3,44.3c0-9.4-4-15-10.4-15s-10.4,5.6-10.4,15c0,9.4,4,15.4,10.4,15.4S221.3,53.8,221.3,44.3z"/>
		<path class="st3" d="M238.8,44.8c0-15.6,10.3-24.6,22.2-24.6c6.1,0,11,2.9,14.1,6.1l-5.6,6.8c-2.4-2.2-4.9-3.7-8.3-3.7
			c-6.4,0-11.5,5.7-11.5,15.1c0,9.6,4.5,15.3,11.3,15.3c3.9,0,6.9-1.9,9.2-4.4l5.6,6.7c-3.9,4.5-9.1,6.9-15.2,6.9
			C248.7,68.9,238.8,60.6,238.8,44.8z"/>
		<path class="st3" d="M282.9,21.1h10.6v19.2h0.3l14-19.2h11.7l-14.2,18.7L322,68h-11.6L299,48.2l-5.5,7.2V68h-10.6V21.1z"/>
		<path class="st3" d="M327.1,21.1h29.4V30h-18.8v9.4h16v8.9h-16v10.8h19.5V68h-30.1V21.1z"/>
		<path class="st3" d="M366.5,21.1h13.3c14.3,0,23.6,7.1,23.6,23.3c0,16.1-9.2,23.7-23,23.7h-13.9V21.1z M379.2,59.5
			c8,0,13.3-3.9,13.3-15.1s-5.4-14.7-13.3-14.7h-2v29.8H379.2z"/>
	</g>
</g>
<polygon class="st4" points="16.2,73 28.9,73 14.7,42.4 5,49 "/>
<polygon class="st3" points="29.3,72.7 44.1,26.4 30.5,29.7 22.6,58.4 "/>
<polygon class="st3" points="40.8,73 59.3,23.1 73.5,19.8 53.8,72.7 "/>
<polygon class="st5" points="44.4,26.7 47.5,53.7 40.5,72.6 37.5,47.9 "/>
<polygon class="st6" points="66.2,72.5 88.7,16 102,12 79,72.5 "/>
<polygon class="st5" points="73.5,19.8 74.7,51.1 66.2,72.5 63.7,46.2 "/>
</svg>
